<svg xmlns="http://www.w3.org/2000/svg" width="18" height="18.375" preserveAspectRatio="xMidYMid"><defs><style>.cls-1 { fill: #182a33; fill-rule: evenodd; }</style></defs><path d="M8.57 6.62C7.24 4.22 5.82 2.24 5.72 2.1 3.57 3.13 1.97 5.15 1.47 7.58c.2 0 3.4.04 7.1-.96zm.96 2.64c.1-.04.2-.07.3-.1-.2-.45-.4-.9-.62-1.33-3.95 1.2-7.75 1.12-7.88 1.12 0 .08 0 .16 0 .25 0 2 .74 3.85 1.96 5.24 0 0 2.1-3.82 6.25-5.18zm-5.26 6.12c-.05-.05-.1-.1-.17-.14.1.08.17.14.17.14zm2.9-13.8c-.02 0-.03 0-.03 0s.02 0 .02 0zm6.9 1.73C12.72 2.1 10.94 1.36 9 1.36c-.63 0-1.23.08-1.82.22.12.16 1.56 2.12 2.88 4.58 2.9-1.1 4-2.8 4-2.84zM9 18.4c-4.97 0-9-4.1-9-9.18S4.03 0 9 0s9 4.12 9 9.2c0 5.07-4.03 9.18-9 9.18zm1.3-7.9c-4.5 1.6-6 4.83-6.03 4.9C5.57 16.4 7.2 17.02 9 17.02c1.06 0 2.07-.22 3-.62-.12-.67-.56-3.07-1.65-5.94 0 0-.03 0-.05.02zm.35-3.16c.18.37.35.75.5 1.13.07.14.12.28.18.4 2.65-.33 5.27.25 5.35.27-.02-1.86-.67-3.57-1.74-4.9-.02.02-1.26 1.83-4.3 3.1zm1.15 2.78c1 2.83 1.4 5.13 1.5 5.6 1.72-1.2 2.95-3.08 3.3-5.26-.17-.05-2.32-.75-4.8-.34z" class="cls-1"/></svg>