<svg xmlns="http://www.w3.org/2000/svg" width="21.75" height="18.75" preserveAspectRatio="xMidYMid"><defs><style>.cls-1 { fill: #182a33; fill-rule: evenodd; }</style></defs><path d="M19.52 4.66c0 .2 0 .4 0 .6 0 6.27-4.47 13.5-12.68 13.5-2.52 0-4.87-.8-6.84-2.14.35.04.7.07 1.06.07 2.1 0 4.02-.77 5.54-2.04-1.95-.04-3.6-1.4-4.16-3.3.27.07.55.1.83.1.4 0 .8-.06 1.18-.17C2.4 10.84.87 8.93.87 6.64c0-.02 0-.04 0-.06.6.34 1.3.56 2.02.58-1.2-.85-2-2.3-2-3.94 0-.87.23-1.68.6-2.38C3.7 3.72 7 5.6 10.7 5.8c-.07-.34-.1-.7-.1-1.08 0-2.6 2-4.73 4.46-4.73 1.28 0 2.44.56 3.25 1.5 1.03-.23 1.98-.62 2.85-1.16-.34 1.1-1.04 2.03-1.97 2.62.9-.12 1.77-.37 2.57-.75-.6.96-1.36 1.8-2.23 2.46z" class="cls-1"/></svg>